
<svg version="1.0" xmlns="http://www.w3.org/2000/svg"
 width="2000.000000pt" height="2000.000000pt" viewBox="0 0 2000.000000 2000.000000"
 preserveAspectRatio="xMidYMid meet" >

<g transform="translate(0.000000,2000.000000) scale(0.100000,-0.100000)"
fill="#555555" stroke="none">
<path d="M10097 19853 c-158 -467 -198 -1044 -116 -1648 97 -717 350 -1329
719 -1741 230 -256 391 -540 462 -812 29 -108 31 -131 32 -292 1 -195 -8 -257
-60 -419 -68 -210 -191 -415 -393 -661 -62 -74 -116 -143 -122 -152 -11 -20
-24 -17 176 -48 332 -52 768 -191 1058 -337 39 -19 73 -31 76 -26 3 4 44 64
89 133 195 294 324 636 378 1005 25 164 25 513 0 680 -61 426 -210 820 -444
1175 -208 316 -431 549 -741 775 -258 188 -381 303 -518 486 -340 455 -532
1127 -533 1857 0 89 -4 162 -9 162 -4 0 -29 -62 -54 -137z"/>
<path d="M6745 19431 c-9 -80 2 -270 25 -441 108 -780 525 -1642 1065 -2199
206 -212 337 -315 608 -476 354 -209 575 -416 722 -675 124 -218 181 -491 156
-750 -19 -204 -59 -361 -165 -648 -31 -84 -56 -156 -56 -160 0 -5 39 0 88 9
250 51 401 63 752 63 234 -1 364 -6 433 -16 l98 -14 24 82 c35 113 71 290 85
422 18 165 8 503 -20 661 -130 732 -567 1381 -1226 1819 -259 172 -461 261
-909 402 -704 220 -1260 851 -1620 1839 l-53 144 -7 -62z"/>
<path d="M13800 19143 c-161 -172 -304 -388 -450 -678 -179 -354 -299 -707
-379 -1110 -56 -283 -66 -391 -66 -730 0 -404 18 -530 126 -868 99 -309 129
-473 129 -708 0 -345 -98 -617 -314 -872 -133 -156 -353 -317 -638 -468 -87
-46 -158 -86 -158 -90 0 -3 46 -34 103 -68 315 -191 675 -491 898 -748 l54
-62 117 78 c283 189 497 402 679 675 287 432 431 924 431 1476 -1 275 -23 454
-92 725 -72 285 -202 584 -370 850 -180 287 -280 566 -320 895 -15 127 -12
455 6 610 37 325 136 696 279 1053 25 61 43 112 41 114 -2 2 -36 -31 -76 -74z"/>
<path d="M3615 17775 c13 -59 78 -222 136 -344 228 -477 629 -968 1109 -1357
338 -274 749 -502 1085 -602 154 -45 172 -50 300 -72 798 -139 1237 -504 1374
-1141 31 -148 41 -270 41 -519 0 -126 2 -230 3 -230 2 0 45 25 95 55 217 131
539 276 798 359 124 39 339 96 367 96 17 0 18 7 12 88 -30 395 -142 756 -333
1079 -371 626 -1005 1079 -1762 1257 -275 65 -462 77 -1030 68 -351 -6 -609
54 -955 223 -408 199 -832 559 -1218 1035 l-29 35 7 -30z"/>
<path d="M17106 16935 c-725 -327 -1498 -1164 -1845 -2000 -60 -143 -128 -363
-157 -502 -13 -67 -33 -211 -44 -320 -24 -235 -55 -390 -109 -551 -140 -419
-415 -710 -806 -855 -201 -74 -392 -109 -728 -133 -53 -3 -99 -10 -102 -13 -2
-4 27 -50 64 -102 208 -291 394 -652 508 -987 l46 -134 46 7 c1152 159 2042
1127 2187 2381 24 207 15 570 -20 799 -30 191 -36 435 -17 585 80 597 403
1178 980 1758 62 61 109 112 104 112 -4 0 -52 -20 -107 -45z"/>
<path d="M4955 14924 c-16 -2 -73 -9 -125 -15 -330 -37 -608 -122 -998 -304
-428 -199 -840 -250 -1332 -164 -350 61 -681 176 -1070 370 -118 59 -216 106
-217 105 -7 -6 164 -191 240 -260 749 -682 1974 -1107 2871 -995 44 6 169 28
276 49 238 48 414 65 578 56 566 -29 964 -308 1227 -859 34 -72 84 -186 110
-251 74 -190 60 -182 136 -79 201 273 553 617 837 817 l82 57 -51 101 c-261
521 -706 934 -1249 1161 -268 112 -541 180 -835 207 -102 9 -411 12 -480 4z"/>
<path d="M9790 13909 c-1516 -60 -2877 -1028 -3448 -2449 -248 -619 -333
-1293 -246 -1965 188 -1461 1207 -2708 2604 -3186 261 -90 540 -153 840 -191
68 -8 221 -13 430 -13 339 0 414 6 675 50 667 115 1298 408 1829 849 140 115
367 340 477 471 823 977 1118 2257 807 3500 -131 526 -390 1043 -744 1485
-205 256 -522 553 -802 750 -588 413 -1343 673 -2022 695 -91 3 -178 7 -195 8
-16 2 -109 0 -205 -4z"/>
<path d="M19065 13743 c-235 -29 -419 -71 -650 -148 -605 -201 -1183 -553
-1616 -985 -258 -256 -387 -434 -549 -755 -155 -306 -252 -449 -419 -615 -196
-195 -430 -318 -691 -364 -266 -46 -499 -23 -892 90 -105 30 -192 53 -194 52
-1 -2 13 -61 31 -131 85 -325 118 -594 119 -959 l1 -278 65 -14 c183 -41 284
-51 525 -51 187 0 264 4 350 18 573 96 1057 348 1472 768 401 406 665 898 787
1469 37 170 70 275 129 412 205 479 604 886 1202 1229 90 51 325 169 505 252
l35 16 -90 -1 c-49 -1 -103 -3 -120 -5z"/>
<path d="M4428 13075 c-524 -64 -1050 -289 -1468 -628 -126 -103 -223 -196
-395 -381 -189 -203 -358 -332 -582 -445 -308 -154 -639 -240 -1048 -272 -179
-14 -612 -6 -790 15 -66 8 -122 12 -124 10 -9 -8 271 -134 394 -177 350 -121
727 -184 1165 -194 420 -10 755 25 1125 118 338 85 584 194 882 391 285 189
467 278 677 333 144 38 242 48 409 42 173 -5 277 -28 438 -94 208 -86 365
-199 621 -452 119 -116 189 -179 192 -170 3 8 16 57 30 109 35 133 115 364
171 495 70 164 206 427 280 540 l65 100 -53 48 c-376 341 -868 561 -1379 616
-130 15 -477 12 -610 -4z"/>
<path d="M4765 11209 c-382 -29 -779 -158 -1127 -366 -561 -335 -1004 -867
-1233 -1483 -119 -321 -255 -544 -464 -763 -357 -373 -898 -667 -1568 -852
-57 -16 -103 -32 -103 -36 0 -29 541 -22 755 11 951 144 1895 643 2387 1260
20 25 73 99 118 165 125 180 206 278 337 406 220 214 450 338 723 390 99 19
367 17 475 -4 194 -38 337 -87 594 -204 90 -41 165 -72 167 -70 3 2 0 35 -6
73 -5 38 -15 160 -22 272 -17 293 7 655 62 926 10 50 15 95 11 99 -14 14 -202
77 -320 107 -274 69 -517 90 -786 69z"/>
<path d="M18720 10443 c-208 -19 -276 -27 -410 -49 -411 -67 -797 -188 -1125
-351 -273 -136 -460 -265 -663 -457 -248 -234 -407 -352 -602 -445 -213 -101
-364 -136 -585 -135 -350 1 -637 117 -1053 427 -153 114 -137 118 -152 -31
-17 -177 -52 -379 -100 -571 -43 -171 -132 -442 -181 -550 -16 -35 -29 -70
-29 -77 0 -19 163 -117 318 -191 237 -115 526 -197 790 -224 170 -17 515 -7
672 21 456 80 874 260 1234 533 301 227 527 473 735 802 98 153 182 262 282
366 425 436 1056 690 1914 769 61 5 136 10 168 10 31 0 57 4 57 9 0 8 -87 36
-221 70 -105 27 -302 58 -439 71 -104 9 -524 12 -610 3z"/>
<path d="M5560 9489 c-377 -27 -757 -148 -1077 -342 -609 -369 -1059 -989
-1243 -1711 -59 -232 -79 -390 -90 -706 -5 -151 -14 -305 -20 -342 -79 -527
-363 -1025 -840 -1475 -160 -151 -372 -323 -524 -428 -32 -22 -53 -41 -47 -43
19 -6 227 56 349 104 705 279 1452 908 1870 1576 153 244 250 458 316 698 21
74 51 184 67 243 131 474 405 835 764 1007 102 48 243 93 370 116 113 21 435
26 673 10 l133 -9 -55 110 c-162 324 -298 736 -354 1077 -15 89 -22 111 -38
117 -23 9 -114 9 -254 -2z"/>
<path d="M6160 7991 c-473 -197 -832 -492 -1115 -916 -478 -714 -585 -1671
-284 -2517 118 -331 146 -433 169 -618 15 -123 12 -391 -5 -527 -61 -464 -261
-964 -586 -1464 -38 -58 -69 -109 -69 -112 0 -9 85 51 180 127 103 82 318 299
421 426 381 466 685 1067 828 1635 67 270 93 472 92 730 0 120 -6 227 -16 290
-22 139 -31 498 -15 622 17 135 60 300 108 411 66 154 135 254 262 382 219
223 446 341 933 485 49 15 87 30 85 34 -2 5 -55 55 -118 113 -241 220 -505
545 -678 835 -37 62 -69 113 -72 113 -3 0 -57 -22 -120 -49z"/>
<path d="M13686 7963 c-145 -274 -372 -577 -634 -845 l-164 -167 52 -76 c134
-199 352 -430 540 -572 338 -256 730 -418 1180 -488 144 -22 504 -31 666 -16
325 31 657 119 945 252 146 68 261 133 424 239 360 235 650 335 1072 371 429
36 998 -64 1558 -274 l70 -27 -60 56 c-247 230 -678 468 -1126 623 -663 229
-1384 296 -1953 179 -109 -22 -203 -50 -441 -131 -589 -202 -1061 -160 -1449
127 -208 153 -348 331 -585 744 -23 39 -46 72 -51 72 -5 0 -25 -30 -44 -67z"/>
<path d="M7125 6801 c-444 -395 -726 -955 -795 -1581 -17 -151 -15 -460 5
-615 73 -592 306 -1116 699 -1575 45 -52 102 -122 127 -155 202 -269 334 -599
396 -995 28 -179 26 -677 -5 -897 -23 -172 -70 -420 -101 -540 -10 -40 -14
-70 -9 -67 20 12 149 219 202 324 428 838 538 2025 265 2854 -31 94 -87 229
-153 365 -114 237 -163 359 -200 504 -103 397 -61 746 128 1061 119 199 283
367 557 573 93 69 167 129 164 131 -2 3 -51 24 -107 47 -329 134 -664 332
-945 557 -67 54 -123 98 -125 98 -2 0 -48 -40 -103 -89z"/>
<path d="M12650 6814 c-180 -156 -450 -343 -676 -468 -115 -63 -324 -164 -386
-185 -33 -12 -34 1 19 -186 113 -400 325 -758 622 -1053 363 -359 839 -613
1362 -726 216 -47 346 -60 609 -60 302 -1 422 14 740 89 218 51 286 59 500 59
217 0 332 -14 533 -65 448 -113 935 -383 1395 -772 56 -48 102 -86 102 -84 0
2 -23 46 -51 98 -183 337 -536 724 -939 1029 -379 286 -798 511 -1193 639
-310 100 -568 141 -905 141 -762 0 -1268 312 -1496 923 -50 132 -88 288 -125
501 -17 98 -32 180 -34 182 -1 2 -36 -26 -77 -62z"/>
<path d="M8469 6048 c-94 -160 -193 -416 -243 -623 -40 -170 -56 -294 -63
-480 -15 -435 81 -861 288 -1275 247 -492 641 -916 1111 -1194 73 -43 167 -99
208 -124 221 -132 443 -347 609 -587 266 -386 454 -939 528 -1558 10 -86 20
-141 25 -133 4 8 19 61 33 118 99 419 94 942 -15 1488 -125 623 -368 1176
-694 1580 -33 41 -155 170 -271 285 -274 274 -407 455 -493 674 -186 471 -113
898 249 1453 60 92 112 175 115 183 5 13 -7 15 -77 15 -304 0 -757 82 -1089
196 -194 66 -171 68 -221 -18z"/>
<path d="M11275 6068 c-328 -111 -714 -181 -1067 -195 l-166 -6 -6 -31 c-3
-17 -10 -69 -15 -116 -57 -488 28 -954 253 -1397 124 -243 269 -445 465 -646
278 -285 590 -500 934 -645 260 -110 441 -161 752 -212 213 -35 304 -56 432
-101 597 -211 1136 -743 1545 -1524 77 -147 80 -145 52 43 -110 744 -630 1654
-1269 2221 -269 239 -517 397 -807 512 -382 151 -651 339 -832 579 -180 239
-259 491 -258 820 0 182 13 283 68 539 19 90 34 171 32 180 -3 14 -17 12 -113
-21z"/>
</g>
</svg>
