<?xml version="1.0" standalone="no"?>
<!DOCTYPE svg PUBLIC "-//W3C//DTD SVG 20010904//EN"
 "http://www.w3.org/TR/2001/REC-SVG-20010904/DTD/svg10.dtd">
<svg version="1.0" xmlns="http://www.w3.org/2000/svg"
 width="40.000000pt" height="56.000000pt" viewBox="0 0 40.000000 56.000000"
 preserveAspectRatio="xMidYMid meet">

<g transform="translate(0.000000,56.000000) scale(0.100000,-0.100000)"
fill="#000000" stroke="none">
<path d="M113 445 c-41 -29 -28 -40 47 -40 57 0 73 4 91 21 l21 21 -29 0 c-15
0 -46 3 -68 7 -30 5 -46 3 -62 -9z"/>
<path d="M276 429 c-26 -20 -26 -22 -26 -154 0 -73 -3 -140 -6 -149 -8 -20
-38 -21 -53 -2 -36 43 -97 40 -122 -5 -10 -19 -8 -20 11 -14 12 4 42 2 66 -5
51 -14 103 -7 136 19 22 18 23 27 28 175 3 86 2 156 -1 156 -4 0 -18 -9 -33
-21z"/>
<path d="M203 375 c-12 -8 -23 -25 -25 -37 -2 -14 -12 -24 -28 -28 -26 -6 -36
-29 -26 -57 5 -12 9 -13 21 -3 24 20 38 1 32 -46 -5 -48 -2 -51 28 -28 17 13
21 30 25 114 3 55 3 100 0 100 -3 0 -15 -7 -27 -15z"/>
</g>
</svg>
